<?xml version="1.0" standalone="no"?>
<!DOCTYPE svg PUBLIC "-//W3C//DTD SVG 20010904//EN"
 "http://www.w3.org/TR/2001/REC-SVG-20010904/DTD/svg10.dtd">
<svg version="1.0" xmlns="http://www.w3.org/2000/svg"
 width="612.000000pt" height="612.000000pt" viewBox="0 0 612.000000 612.000000"
 preserveAspectRatio="xMidYMid meet">

<g transform="translate(0.000000,612.000000) scale(0.100000,-0.100000)"
fill="#000000" stroke="none">
<path d="M3340 5947 c-102 -45 -154 -80 -225 -148 -36 -35 -69 -59 -82 -59
-21 0 -147 -29 -208 -48 -17 -5 -50 -19 -73 -31 -24 -12 -47 -19 -52 -16 -6 4
-31 -13 -56 -37 -26 -24 -57 -53 -71 -65 -13 -13 -28 -23 -32 -23 -5 0 -25
-15 -46 -34 -20 -19 -56 -39 -80 -45 -50 -13 -60 -24 -46 -48 6 -10 11 -12 11
-5 0 6 5 12 11 12 17 0 6 -42 -15 -54 -31 -17 -54 -40 -63 -61 -5 -11 -24 -44
-43 -74 -19 -30 -35 -57 -35 -60 -1 -3 -6 -16 -13 -28 -6 -12 -9 -28 -6 -37 3
-8 1 -31 -6 -50 -8 -27 -17 -36 -38 -38 -20 -2 -28 -10 -33 -34 -3 -17 -13
-42 -22 -55 -10 -13 -17 -33 -17 -46 0 -12 -7 -28 -15 -37 -9 -8 -19 -34 -24
-58 -4 -24 -20 -68 -34 -98 -14 -30 -37 -108 -52 -172 -15 -65 -32 -118 -37
-118 -9 0 -4 29 17 100 8 25 21 72 28 105 8 33 26 86 41 118 23 51 24 58 9 53
-10 -3 -55 -14 -100 -26 -223 -56 -524 -191 -673 -304 -177 -133 -285 -261
-380 -451 -65 -130 -87 -193 -124 -342 -45 -181 -51 -237 -51 -488 1 -305 26
-478 112 -740 29 -90 111 -296 122 -308 4 -4 21 -2 37 4 18 7 80 11 166 10
l138 -2 49 50 c32 32 62 53 87 59 92 24 175 36 259 39 75 2 99 7 148 31 56 28
58 29 53 8 -3 -11 -6 -24 -6 -28 0 -5 -5 -8 -11 -8 -5 0 -7 5 -4 10 3 6 -3 10
-15 10 -11 0 -23 -7 -26 -15 -4 -8 -10 -12 -15 -9 -6 3 -21 -1 -34 -10 -25
-16 -86 -22 -99 -9 -13 13 -41 12 -93 -2 -28 -8 -63 -15 -77 -15 -14 0 -26 -5
-26 -11 0 -6 -6 -9 -14 -6 -8 3 -26 -9 -42 -26 -17 -19 -20 -24 -6 -13 13 12
22 14 22 7 0 -7 5 -9 11 -5 8 5 8 9 -1 14 -9 5 -9 9 -1 14 6 4 11 2 11 -4 0
-7 7 -10 15 -6 8 3 0 -10 -17 -29 -23 -23 -35 -30 -40 -22 -6 9 -11 8 -19 -3
-9 -13 -10 -13 -6 1 3 9 2 22 -3 29 -6 10 -12 10 -29 -2 -25 -17 -90 -116 -91
-136 0 -7 -7 -23 -15 -36 -9 -13 -22 -45 -29 -72 -8 -27 -21 -74 -30 -104 -14
-50 -21 -92 -31 -200 -2 -19 -4 -43 -4 -52 -1 -28 -38 -22 -110 19 -63 36 -70
38 -156 37 -80 0 -97 -3 -150 -31 l-60 -30 -7 -63 c-4 -35 -14 -78 -23 -96 -8
-17 -16 -52 -16 -76 -1 -23 -6 -51 -11 -62 -8 -14 -2 -29 23 -65 104 -145 331
-379 499 -514 225 -181 583 -386 840 -481 231 -85 494 -149 730 -178 138 -17
563 -17 700 0 593 74 1125 300 1590 676 170 137 374 353 513 541 71 95 77 117
56 185 -5 19 -12 53 -15 75 -6 49 -22 94 -43 119 -23 26 -142 84 -209 101 -90
22 -270 22 -380 0 -50 -11 -107 -28 -116 -37 -6 -4 -16 -8 -23 -8 -8 0 -33 -9
-55 -20 -35 -17 -47 -18 -74 -8 -29 10 -35 9 -64 -15 -17 -15 -35 -27 -39 -27
-31 0 -57 124 -28 136 9 3 12 14 9 31 -3 18 -1 24 7 19 23 -15 12 58 -14 86
-14 15 -25 35 -25 45 0 10 -9 33 -21 52 -24 39 -28 116 -7 157 7 16 29 39 48
51 19 13 43 30 52 38 9 7 27 15 40 17 23 4 23 5 -4 16 -15 6 -44 13 -65 16
-80 10 -123 19 -123 25 0 18 206 -27 238 -52 7 -5 14 -8 16 -6 1 2 70 114 153
249 83 135 197 322 255 415 500 810 595 1218 348 1497 -47 54 -188 152 -282
196 -185 87 -486 172 -773 218 -88 14 -163 28 -166 32 -4 4 -17 50 -29 102
-25 109 -27 115 -45 100 -9 -8 -17 -2 -29 25 -18 37 -15 55 10 55 20 0 -9 70
-56 135 -49 67 -67 82 -82 67 -22 -22 -44 -13 -55 21 -11 38 -7 57 13 57 17 0
19 40 2 41 -7 1 -20 1 -28 0 -18 -2 -43 58 -35 81 4 9 -4 19 -20 26 -14 6 -25
17 -25 25 0 7 -13 20 -28 29 -48 29 -79 66 -92 113 -9 32 -32 64 -89 123 -42
44 -85 82 -97 86 -12 3 -26 18 -32 31 -16 35 -59 32 -152 -8z m-680 -412 c11
-13 8 -21 -15 -45 -22 -23 -32 -27 -42 -19 -16 14 -16 20 -3 53 11 29 41 34
60 11z m-172 -359 c9 -20 7 -27 -13 -46 -43 -40 -83 -7 -54 46 16 32 52 31 67
0z m1706 -361 c6 -16 -12 -65 -24 -65 -9 0 -30 46 -30 65 0 20 46 19 54 0z
m51 -189 c9 -65 14 -121 11 -123 -9 -9 -37 179 -35 236 1 42 7 14 24 -113z
m-2139 69 c7 -17 -14 -85 -26 -85 -12 0 -30 34 -30 57 0 36 45 59 56 28z
m2173 -252 c6 -20 8 -39 6 -41 -5 -6 -35 61 -35 78 0 23 20 -2 29 -37z m46
-94 c9 -16 16 -32 16 -36 1 -5 3 -12 5 -18 34 -97 43 -141 30 -150 -17 -13 -6
-81 11 -78 19 4 24 -80 9 -139 -16 -61 -45 -123 -46 -97 0 9 3 19 7 23 17 17
40 128 33 159 l-7 32 -7 -35 c-4 -19 -8 -45 -9 -57 -1 -13 -5 -23 -10 -23 -5
0 -6 -10 -3 -22 l6 -23 -11 22 c-8 16 -9 34 -1 63 8 34 8 128 -1 173 -1 7 4
11 12 9 10 -2 12 3 7 20 -4 13 -8 30 -8 38 0 8 -5 20 -10 27 -5 7 -7 17 -3 23
3 5 2 10 -3 10 -6 0 -13 16 -16 35 -4 19 -11 35 -16 35 -6 0 -10 7 -10 15 0 8
-5 15 -11 15 -5 0 -7 5 -4 10 9 14 22 4 40 -31z m-2390 -119 c-6 -39 -8 -42
-20 -27 -15 21 -25 22 -25 2 0 -8 -5 -15 -10 -15 -13 0 7 41 28 56 8 6 17 35
21 65 l6 54 3 -45 c2 -25 0 -65 -3 -90z m2388 -42 c-9 -15 -23 -8 -23 12 0 17
2 19 14 8 8 -7 12 -16 9 -20z m-34 -43 c0 -5 -4 -3 -9 5 -5 8 -9 22 -9 30 0
16 17 -16 18 -35z m-2417 18 c0 -4 4 -17 8 -28 5 -13 3 -31 -5 -45 -10 -18
-10 -29 -3 -38 14 -16 1 -29 -14 -14 -14 14 -47 15 -65 4 -21 -13 -41 -182
-23 -182 6 0 10 -5 10 -10 0 -6 9 -20 20 -32 17 -19 20 -19 26 -4 3 9 3 32 0
50 -4 19 -3 37 2 40 17 10 28 -10 29 -54 1 -25 5 -66 8 -92 4 -30 3 -48 -3
-48 -16 0 -44 -50 -47 -84 -8 -73 -52 -174 -74 -168 -6 1 -11 -3 -11 -10 0 -6
-2 -9 -5 -6 -9 9 25 79 35 73 5 -3 7 1 4 9 -3 8 -1 30 5 48 19 58 21 141 5
203 -36 139 -38 158 -20 215 10 35 31 71 56 98 22 24 43 55 46 68 6 23 15 27
16 7z m2441 -8 c-3 -9 -8 -14 -10 -11 -3 3 -2 9 2 15 9 16 15 13 8 -4z m17
-55 c0 -5 -2 -10 -4 -10 -3 0 -8 5 -11 10 -3 6 -1 10 4 10 6 0 11 -4 11 -10z
m-20 -50 c0 -11 -5 -22 -11 -26 -16 -10 -29 9 -23 33 7 26 34 20 34 -7z
m-2398 -133 c4 -19 -1 -35 -13 -50 -18 -22 -18 -21 -19 41 0 53 2 61 13 50 8
-7 16 -26 19 -41z m2348 18 c0 -8 -4 -15 -10 -15 -5 0 -7 7 -4 15 4 8 8 15 10
15 2 0 4 -7 4 -15z m4 -61 c3 -8 2 -12 -4 -9 -6 3 -10 10 -10 16 0 14 7 11 14
-7z m6 -34 c0 -5 -5 -10 -11 -10 -5 0 -7 5 -4 10 3 6 8 10 11 10 2 0 4 -4 4
-10z m-23 -42 c-3 -8 -6 -5 -6 6 -1 11 2 17 5 13 3 -3 4 -12 1 -19z m91 -14
c-7 -15 -14 -21 -16 -15 -2 7 2 18 8 26 18 22 21 18 8 -11z m-59 -11 c-18 -56
-21 -63 -30 -63 -13 0 -12 4 12 50 25 47 31 51 18 13z m1 -87 c-6 -20 -16 -36
-21 -36 -13 0 -11 7 7 46 21 44 30 37 14 -10z m-779 13 c5 -7 8 -32 7 -54 -1
-23 2 -46 6 -53 9 -15 -2 -15 -99 -1 l-76 12 5 49 c3 28 9 54 12 60 10 16 133
5 145 -13z m-561 -73 c0 -11 -19 -15 -25 -6 -3 5 1 10 9 10 9 0 16 -2 16 -4z
m53 -13 c2 -5 7 -24 11 -43 9 -51 -11 -75 -60 -72 -52 4 -58 11 -30 33 14 11
31 35 37 54 12 32 32 45 42 28z m1267 -55 c0 -28 -3 -48 -7 -45 -8 9 -15 68
-8 84 9 26 15 12 15 -39z m-777 3 c41 -9 43 -28 8 -70 l-29 -33 -79 13 c-87
16 -102 33 -64 73 12 12 18 26 14 30 -8 8 90 -1 150 -13z m-1065 -69 c38 -12
44 -27 33 -87 -15 -79 -14 -112 4 -173 25 -83 98 -151 174 -161 5 0 13 -10 16
-22 4 -11 18 -25 31 -31 13 -6 24 -17 24 -25 0 -7 8 -13 19 -13 10 0 24 -6 30
-14 6 -7 23 -13 37 -13 30 0 33 -3 37 -32 2 -12 15 -36 30 -52 15 -17 27 -35
27 -41 0 -5 5 -6 10 -3 6 3 10 2 10 -4 0 -6 6 -8 13 -5 7 2 19 -7 27 -20 7
-14 17 -23 22 -20 4 3 8 1 8 -4 0 -15 70 -29 175 -35 33 -2 78 -7 100 -11 22
-4 52 -3 65 2 24 9 24 9 -10 17 -44 9 -88 33 -117 63 -13 13 -23 20 -23 17 0
-4 -7 1 -16 10 -10 10 -23 13 -33 9 -9 -4 -29 -6 -46 -5 -16 1 -40 -4 -53 -11
-31 -16 -45 4 -37 55 8 54 24 75 63 82 46 8 72 26 72 47 0 10 9 27 19 37 11
11 17 22 13 25 -3 3 2 6 11 6 9 0 17 7 17 15 0 8 4 15 10 15 5 0 6 7 3 17 -4
11 -3 14 6 9 7 -5 17 5 27 26 29 62 45 88 55 88 5 0 9 9 9 20 0 11 5 20 10 20
6 0 10 15 10 33 0 21 9 42 25 60 41 43 66 35 83 -28 9 -37 10 -38 11 -10 1 17
8 39 16 49 13 17 14 13 8 -35 -3 -30 -10 -57 -15 -60 -10 -7 6 -137 24 -196
14 -48 87 -107 156 -127 85 -24 242 -22 317 4 32 11 67 28 77 37 10 9 20 14
23 11 9 -9 -37 -43 -73 -53 -23 -7 -41 -20 -48 -35 -43 -89 -64 -143 -73 -179
-5 -24 -17 -50 -26 -59 -36 -38 -145 -191 -145 -205 0 -21 57 -67 82 -67 12 0
19 -3 15 -6 -3 -4 0 -13 8 -20 8 -8 11 -22 8 -32 -9 -26 -63 -92 -75 -92 -5 0
-22 -12 -37 -27 -15 -16 -48 -46 -75 -68 -68 -56 -94 -83 -128 -135 -28 -41
-30 -40 -11 6 5 14 2 13 -15 -2 -12 -10 -22 -23 -22 -28 0 -5 -7 -17 -16 -27
-8 -9 -17 -26 -18 -36 -2 -10 -10 -19 -19 -21 -23 -5 -98 -78 -89 -87 4 -4 -2
-5 -13 -3 -12 2 -19 -2 -18 -9 2 -7 -6 -17 -17 -23 -14 -7 -20 -7 -20 0 0 5
-5 10 -11 10 -6 0 -8 -8 -5 -18 4 -13 -7 -28 -38 -55 -44 -36 -51 -56 -28 -79
7 -7 12 -21 12 -32 0 -16 -20 -30 -89 -63 -49 -24 -94 -43 -101 -43 -6 0 -41
-30 -78 -66 -37 -36 -80 -73 -95 -82 -15 -9 -30 -27 -33 -39 -3 -12 -12 -24
-20 -27 -10 -4 -12 2 -7 24 3 17 1 36 -5 43 -6 7 -25 41 -42 75 -17 35 -39 65
-48 68 -9 3 -24 8 -32 12 -8 3 -19 4 -23 3 -19 -4 -225 121 -240 146 -5 7 -17
21 -27 31 -11 10 -26 34 -35 55 -8 20 -20 37 -25 37 -19 0 -51 83 -56 143 -4
62 -36 168 -59 197 -21 27 -45 83 -51 120 -5 33 -2 40 32 70 l38 33 -39 -7
c-22 -4 -48 -9 -57 -12 -10 -3 -18 -1 -18 5 0 6 1 11 3 11 1 1 29 3 62 6 33 3
83 16 112 29 47 21 53 28 63 67 6 24 17 64 25 89 20 64 7 129 -73 359 -16 47
-33 111 -36 143 -10 79 -21 101 -62 116 -30 11 -33 15 -22 28 8 10 14 11 16 4
5 -16 28 -14 47 5 19 20 12 99 -13 127 -8 9 -11 17 -6 17 11 0 17 46 18 123 1
51 5 55 41 31 18 -12 28 -13 44 -5 13 7 22 8 26 1 8 -13 47 -6 79 15 16 11 26
13 26 6 0 -18 20 -12 21 7 1 9 5 1 9 -18 5 -19 13 -36 18 -38z m1562 -13 c63
-19 108 -39 133 -60 39 -32 39 -32 34 -93 -6 -68 -37 -161 -67 -199 -11 -14
-20 -29 -20 -34 0 -13 -49 -56 -93 -81 -77 -44 -230 -51 -364 -16 -62 16 -94
37 -118 76 -37 64 -41 238 -5 238 24 0 34 42 14 57 -12 8 -14 20 -9 42 9 41
19 45 35 16 7 -14 17 -25 22 -25 4 0 8 -6 8 -12 0 -7 12 -25 25 -41 21 -24 32
-27 87 -29 35 -1 69 2 76 6 16 9 15 38 0 56 -11 12 -10 12 2 3 11 -8 18 -7 28
3 11 12 9 14 -12 14 -38 0 -38 13 0 43 21 18 34 37 34 51 0 22 3 23 48 19 26
-3 90 -18 142 -34z m210 -22 l0 -32 -20 33 c-26 42 -26 56 0 42 14 -7 20 -21
20 -43z m-1521 23 c10 0 26 -9 35 -19 10 -11 24 -17 32 -14 19 7 18 21 -3 26
-14 4 -12 5 5 6 12 0 22 -3 22 -9 0 -5 7 -10 15 -10 17 0 20 -16 5 -25 -5 -3
-10 -1 -10 4 0 6 -4 11 -10 11 -24 0 -7 -19 25 -30 20 -7 47 -22 60 -34 l24
-22 -30 -33 c-16 -18 -27 -36 -24 -41 3 -5 -4 -14 -15 -20 -11 -6 -18 -15 -15
-21 4 -5 2 -9 -3 -9 -4 0 -14 -23 -21 -51 -10 -37 -17 -49 -28 -45 -8 3 -12 2
-9 -3 6 -10 -31 -24 -54 -21 -9 1 -6 -6 9 -19 29 -26 13 -27 -49 -4 -61 23
-116 58 -135 87 -33 50 -35 218 -3 250 22 22 56 36 71 30 8 -3 18 -1 21 5 4 6
13 8 20 5 7 -3 19 3 27 12 8 10 15 12 17 5 2 -6 12 -11 21 -11z m1599 -45 l1
-20 -9 20 c-5 11 -8 31 -8 45 l0 25 8 -25 c4 -14 8 -34 8 -45z m-2410 1 c-7
-6 -27 -28 -42 -49 -34 -45 -45 -43 -17 3 10 18 17 40 14 49 -4 14 -3 14 6 1
9 -13 13 -11 28 9 12 17 18 21 21 11 3 -7 -2 -18 -10 -24z m82 -2 c0 -7 14
-29 30 -47 17 -19 30 -39 30 -45 0 -5 7 -13 16 -16 8 -3 13 -10 10 -15 -3 -5
6 -8 20 -8 31 0 36 -5 40 -43 9 -79 -64 -24 -117 88 -17 35 -40 73 -50 83 -22
22 -16 47 7 28 8 -6 14 -17 14 -25z m2190 32 c0 -3 -4 -8 -10 -11 -5 -3 -10
-1 -10 4 0 6 5 11 10 11 6 0 10 -2 10 -4z m-2090 -31 c0 -8 -4 -15 -10 -15 -5
0 -7 7 -4 15 4 8 8 15 10 15 2 0 4 -7 4 -15z m-320 -29 c-5 -7 -11 -26 -13
-42 -1 -16 -10 -41 -20 -56 -13 -19 -19 -48 -20 -97 -1 -39 -6 -71 -10 -71
-10 0 -7 104 5 150 14 55 52 138 61 133 4 -3 3 -10 -3 -17z m2520 -16 c0 -11
-4 -20 -10 -20 -5 0 -10 9 -10 20 0 11 5 20 10 20 6 0 10 -9 10 -20z m40 -32
c0 -62 -5 -60 -14 5 -5 31 -4 47 3 47 7 0 11 -22 11 -52z m-2216 15 c-4 -16
-13 -35 -20 -43 -12 -12 -14 -11 -14 9 0 27 17 61 31 61 5 0 7 -12 3 -27z
m-298 -58 c-8 -13 -18 -46 -22 -75 -4 -33 -10 -48 -17 -41 -6 6 -5 26 2 58 6
26 13 61 16 76 5 24 8 27 21 16 13 -10 13 -14 0 -34z m355 11 c-6 -8 -11 -18
-10 -22 4 -26 -3 -37 -11 -16 -11 27 -3 52 17 52 12 0 13 -3 4 -14z m2093 -5
c4 -5 -3 -7 -14 -4 -23 6 -26 13 -6 13 8 0 17 -4 20 -9z m40 -192 c1 -94 -2
-173 -7 -176 -4 -2 -5 -9 -1 -14 12 -21 -83 -159 -110 -159 -3 0 -23 -11 -44
-23 -37 -24 -117 -44 -107 -27 3 5 31 18 61 30 61 22 119 77 130 120 4 14 9
30 13 35 7 12 9 24 16 105 3 36 12 92 20 125 12 54 18 150 8 118 -3 -7 -17
-13 -33 -13 -31 0 -45 -13 -55 -53 -4 -15 -11 -27 -15 -27 -5 0 -11 -12 -15
-27 -3 -16 -22 -46 -41 -67 -41 -48 -45 -38 -5 13 31 39 65 111 76 160 8 37
21 47 40 31 11 -9 15 -9 15 -1 0 7 8 11 18 9 12 -2 16 3 14 17 -3 16 -1 17 9
8 9 -9 13 -60 13 -184z m-1022 89 c-7 -7 -12 -8 -12 -2 0 6 3 14 7 17 3 4 9 5
12 2 2 -3 -1 -11 -7 -17z m-97 -18 c4 -6 11 -8 16 -5 5 4 9 2 9 -4 0 -5 -4
-13 -10 -16 -5 -3 -10 -1 -10 5 0 7 -6 10 -13 7 -8 -3 -14 1 -14 9 0 16 13 19
22 4z m-1397 -73 c0 -29 3 -63 6 -75 4 -13 3 -22 -3 -22 -13 0 -22 45 -20 103
3 65 17 60 17 -6z m2581 -66 c1 -63 -4 -92 -18 -120 -10 -20 -27 -53 -37 -73
-23 -47 -99 -126 -110 -115 -2 2 2 10 11 17 8 7 15 19 15 26 0 8 4 14 9 14 20
0 61 55 75 103 19 62 36 165 37 227 1 82 18 12 18 -79z m-2629 -11 c22 -43 26
-70 10 -70 -5 0 -10 7 -10 15 0 8 -5 15 -11 15 -8 0 -8 4 0 14 9 10 8 16 -4
26 -14 12 -21 40 -10 40 2 0 14 -18 25 -40z m60 -48 c0 -10 -6 -19 -14 -19
-11 0 -12 4 -3 19 7 10 13 18 14 18 2 0 3 -8 3 -18z m2387 -268 c-10 -11 -78
-33 -72 -25 3 6 14 11 23 11 13 0 14 2 4 8 -8 6 -2 9 18 9 16 0 29 -2 27 -3z
m-153 -36 c6 -5 1 -8 -12 -8 -15 0 -21 4 -16 11 5 8 -1 10 -20 7 -14 -3 -26
-2 -26 3 0 12 54 16 59 4 2 -5 9 -13 15 -17z m66 8 c0 -2 -9 -6 -20 -9 -11 -3
-18 -1 -14 4 5 9 34 13 34 5z m-100 -349 c145 -56 241 -80 299 -73 31 3 81 9
111 12 30 4 53 4 50 1 -3 -2 -28 -7 -57 -11 -28 -3 -62 -10 -75 -15 -34 -13
-100 -4 -188 26 -25 8 -69 21 -98 29 -53 14 -202 79 -202 89 0 2 21 -4 48 -14
26 -10 76 -30 112 -44z m-1950 8 c0 -7 -33 -19 -75 -29 -28 -7 -29 -6 -10 7
27 19 85 34 85 22z m-146 -131 c3 -8 2 -12 -4 -9 -6 3 -10 10 -10 16 0 14 7
11 14 -7z m-364 -68 c0 -2 -8 -10 -17 -17 -16 -13 -17 -12 -4 4 13 16 21 21
21 13z m1264 -878 c9 -35 8 -38 -14 -38 -14 0 -20 7 -20 23 0 41 24 51 34 15z"/>
<path d="M1821 3774 c0 -11 3 -14 6 -6 3 7 2 16 -1 19 -3 4 -6 -2 -5 -13z"/>
<path d="M2801 2914 c0 -11 3 -14 6 -6 3 7 2 16 -1 19 -3 4 -6 -2 -5 -13z"/>
<path d="M3405 2790 c-4 -6 3 -10 14 -10 25 0 27 6 6 13 -8 4 -17 2 -20 -3z"/>
<path d="M2686 2598 c-6 -29 -4 -57 3 -56 34 7 161 -49 146 -64 -3 -3 4 -13
15 -23 11 -10 20 -27 20 -38 0 -25 53 -77 79 -77 11 0 22 -4 25 -9 10 -16 144
-21 173 -5 16 7 49 14 74 14 31 0 62 9 93 26 46 26 96 79 96 103 0 7 14 26 32
43 l32 30 -137 -4 c-75 -2 -137 0 -137 3 0 15 -176 31 -282 27 -111 -5 -113
-4 -152 24 -47 34 -74 36 -80 6z m584 -159 c0 -6 7 -9 15 -6 8 4 17 2 19 -2 5
-7 -14 -8 -46 -2 -12 2 -10 21 2 21 6 0 10 -5 10 -11z"/>
<path d="M2292 2555 c-26 -56 1 -199 47 -250 10 -11 33 -42 51 -69 90 -134
198 -202 370 -232 47 -9 86 -19 88 -23 1 -5 14 -6 27 -3 14 2 25 0 25 -6 0 -6
9 -16 20 -22 25 -13 100 -21 100 -10 0 5 21 18 46 30 l46 23 -47 23 c-25 13
-62 24 -80 24 -19 0 -36 4 -39 8 -3 5 -15 8 -28 7 -13 -1 -41 4 -63 12 -22 8
-62 16 -89 19 -27 2 -54 8 -60 13 -18 13 -55 20 -58 10 -4 -12 -74 52 -70 64
1 4 -1 6 -6 3 -4 -3 -24 10 -43 27 -61 56 -123 150 -173 263 -27 60 -50 110
-51 112 -1 1 -7 -9 -13 -23z"/>
<path d="M3540 2388 c-32 -39 -185 -194 -252 -256 -42 -37 -34 -46 15 -15 108
68 160 108 195 151 20 26 40 49 43 52 19 15 54 110 41 110 -4 0 -23 -19 -42
-42z"/>
<path d="M2517 2252 c15 -36 29 -52 46 -52 5 0 -1 12 -12 26 -12 15 -21 32
-21 39 0 7 -6 15 -14 18 -12 5 -12 0 1 -31z"/>
<path d="M3150 1795 c-7 -8 -8 -15 -2 -15 5 0 15 7 22 15 7 8 8 15 2 15 -5 0
-15 -7 -22 -15z"/>
<path d="M3105 1760 c-3 -5 1 -10 9 -10 9 0 16 5 16 10 0 6 -4 10 -9 10 -6 0
-13 -4 -16 -10z"/>
<path d="M2650 1522 c0 -4 12 -33 27 -64 26 -53 31 -58 61 -58 26 0 44 12 98
65 l66 66 -54 -8 c-61 -8 -74 -8 -145 0 -29 3 -53 2 -53 -1z"/>
<path d="M3846 3468 c-10 -51 37 -62 76 -17 16 19 17 19 38 -11 24 -34 45 -39
47 -11 2 27 -14 38 -82 56 -76 19 -71 20 -79 -17z"/>
<path d="M4067 3415 c-4 -8 -2 -17 3 -20 6 -4 10 3 10 14 0 25 -6 27 -13 6z"/>
<path d="M855 2050 c-3 -5 -1 -10 4 -10 6 0 11 5 11 10 0 6 -2 10 -4 10 -3 0
-8 -4 -11 -10z"/>
</g>
</svg>
